<svg xmlns="http://www.w3.org/2000/svg" xmlns:xlink="http://www.w3.org/1999/xlink" width="85" zoomAndPan="magnify" viewBox="0 0 63.75 80.249996" height="107" preserveAspectRatio="xMidYMid meet" version="1.0"><defs id="brand"><g/></defs><g fill="#a6a6a6" fill-opacity="1"><g transform="translate(2.33626, 52.562768)"><g><path d="M 26.117188 -0.0390625 C 25.238281 -2.113281 25.238281 -7.136719 26.277344 -8.8125 C 22.925781 -9.488281 20.8125 -6.101562 20.695312 -2.390625 L 13.476562 -2.433594 C 13.277344 -3.109375 13.15625 -3.828125 13.15625 -4.503906 L 13.117188 -14.671875 L 16.070312 -14.671875 C 18.140625 -14.671875 18.261719 -12.800781 18.261719 -11.800781 C 18.621094 -11.683594 20.136719 -11.601562 20.574219 -11.644531 L 20.574219 -19.296875 C 20.136719 -19.296875 18.621094 -19.257812 18.261719 -19.097656 C 18.222656 -17.664062 18.222656 -16.269531 16.070312 -16.269531 L 13.117188 -16.269531 L 13.117188 -24.363281 C 13.117188 -24.921875 13.199219 -25.320312 13.316406 -25.679688 L 20.335938 -25.71875 C 20.453125 -22.050781 22.566406 -18.660156 25.917969 -19.296875 C 24.878906 -20.972656 24.878906 -25.996094 25.757812 -28.109375 L 14.59375 -28.109375 L 14.632812 -28.109375 C 13.515625 -28.109375 11.402344 -27.910156 9.210938 -27.910156 C 6.539062 -27.910156 3.789062 -28.230469 2.710938 -29.664062 C 2.191406 -29.347656 1.636719 -28.429688 1.636719 -27.234375 C 1.636719 -25.519531 2.3125 -24.242188 3.429688 -23.484375 L 3.390625 -4.503906 C 3.390625 -3.191406 2.910156 -1.59375 2.152344 -0.519531 L 1.792969 0 L 14.753906 0 L 14.753906 -0.0390625 Z M 26.117188 -0.0390625 "/></g></g></g><g fill="#000000" fill-opacity="1"><g transform="translate(30.015077, 52.562768)"><g><path d="M 2.710938 -29.664062 C 2.191406 -29.347656 1.636719 -28.429688 1.636719 -27.234375 C 1.636719 -25.519531 2.3125 -24.242188 3.429688 -23.484375 L 3.390625 -4.503906 C 3.390625 -3.191406 2.910156 -1.59375 2.191406 -0.519531 L 1.792969 0.078125 L 16.507812 0.078125 C 25 0.078125 30.144531 -2.472656 30.144531 -8.015625 C 30.144531 -12.480469 26.714844 -14.992188 20.894531 -15.789062 C 24.5625 -16.667969 26.632812 -18.582031 26.632812 -21.691406 C 26.632812 -27.671875 18.980469 -28.109375 14.632812 -28.109375 C 13.4375 -27.949219 11.484375 -27.75 9.488281 -27.75 C 6.699219 -27.75 3.828125 -28.148438 2.710938 -29.664062 Z M 13.597656 -26.632812 C 16.507812 -26.632812 18.183594 -25.238281 18.183594 -21.691406 C 18.183594 -18.0625 16.507812 -16.707031 13.554688 -16.707031 L 13.117188 -16.707031 L 13.117188 -23.164062 C 13.078125 -25.996094 13.277344 -26.394531 13.597656 -26.632812 Z M 13.15625 -2.910156 L 13.117188 -14.511719 L 14.433594 -14.511719 C 18.101562 -14.511719 20.175781 -13.117188 20.175781 -8.53125 C 20.175781 -3.90625 18.101562 -2.152344 14.433594 -2.152344 L 13.238281 -2.152344 C 13.199219 -2.351562 13.15625 -2.589844 13.15625 -2.910156 Z M 13.15625 -2.910156 "/></g></g></g></svg>