<svg xmlns="http://www.w3.org/2000/svg" xmlns:xlink="http://www.w3.org/1999/xlink" width="128" zoomAndPan="magnify" viewBox="0 0 96 95.999999" height="128" preserveAspectRatio="xMidYMid meet" version="1.0"><defs><g/></defs><g fill="#a6a6a6" fill-opacity="1"><g transform="translate(4.377231, 65.999999)"><g><path d="M 38.726562 -0.0585938 C 37.425781 -3.132812 37.425781 -10.582031 38.960938 -13.066406 C 33.996094 -14.070312 30.863281 -9.046875 30.683594 -3.546875 L 19.984375 -3.605469 C 19.6875 -4.613281 19.511719 -5.675781 19.511719 -6.679688 L 19.453125 -21.757812 L 23.828125 -21.757812 C 26.902344 -21.757812 27.078125 -18.976562 27.078125 -17.5 C 27.609375 -17.324219 29.855469 -17.203125 30.507812 -17.265625 L 30.507812 -28.617188 C 29.855469 -28.617188 27.609375 -28.554688 27.078125 -28.320312 C 27.019531 -26.191406 27.019531 -24.121094 23.828125 -24.121094 L 19.453125 -24.121094 L 19.453125 -36.125 C 19.453125 -36.953125 19.570312 -37.542969 19.746094 -38.074219 L 30.152344 -38.132812 C 30.328125 -32.695312 33.464844 -27.667969 38.429688 -28.617188 C 36.890625 -31.097656 36.890625 -38.546875 38.191406 -41.679688 L 21.640625 -41.679688 L 21.699219 -41.679688 C 20.042969 -41.679688 16.910156 -41.386719 13.65625 -41.386719 C 9.695312 -41.386719 5.617188 -41.859375 4.019531 -43.988281 C 3.25 -43.515625 2.425781 -42.15625 2.425781 -40.378906 C 2.425781 -37.839844 3.429688 -35.945312 5.085938 -34.824219 L 5.027344 -6.679688 C 5.027344 -4.730469 4.316406 -2.363281 3.191406 -0.769531 L 2.660156 0 L 21.875 0 L 21.875 -0.0585938 Z M 38.726562 -0.0585938 "/></g></g></g><g fill="#000000" fill-opacity="1"><g transform="translate(45.416291, 65.999999)"><g><path d="M 4.019531 -43.988281 C 3.25 -43.515625 2.425781 -42.15625 2.425781 -40.378906 C 2.425781 -37.839844 3.429688 -35.945312 5.085938 -34.824219 L 5.027344 -6.679688 C 5.027344 -4.730469 4.316406 -2.363281 3.25 -0.769531 L 2.660156 0.117188 L 24.476562 0.117188 C 37.070312 0.117188 44.695312 -3.664062 44.695312 -11.882812 C 44.695312 -18.503906 39.613281 -22.230469 30.980469 -23.414062 C 36.417969 -24.714844 39.492188 -27.550781 39.492188 -32.164062 C 39.492188 -41.03125 28.140625 -41.679688 21.699219 -41.679688 C 19.925781 -41.445312 17.027344 -41.148438 14.070312 -41.148438 C 9.933594 -41.148438 5.675781 -41.742188 4.019531 -43.988281 Z M 20.160156 -39.492188 C 24.476562 -39.492188 26.960938 -37.425781 26.960938 -32.164062 C 26.960938 -26.78125 24.476562 -24.773438 20.101562 -24.773438 L 19.453125 -24.773438 L 19.453125 -34.351562 C 19.390625 -38.546875 19.6875 -39.140625 20.160156 -39.492188 Z M 19.511719 -4.316406 L 19.453125 -21.519531 L 21.402344 -21.519531 C 26.839844 -21.519531 29.914062 -19.453125 29.914062 -12.652344 C 29.914062 -5.792969 26.839844 -3.191406 21.402344 -3.191406 L 19.628906 -3.191406 C 19.570312 -3.488281 19.511719 -3.84375 19.511719 -4.316406 Z M 19.511719 -4.316406 "/></g></g></g></svg>